# xmcd CD database file generated by freedbAccess_ocx
#
# Track frame offsets:
#       150
#       11741
#       33553
#       47551
#       64353
#       85685
#       98901
#       115575
#       132856
#
# Disc length: 2037 seconds
#
# Revision: 0
# Processed by: cddbd v1.5.1PL0 Copyright (c) Steve Scherf et al.
# Submitted via: CDnGo 2.00
#
DISCID=6f07f309
DTITLE=Goldentone - live at UV
DYEAR=2001
DGENRE=Alt. Country
TTITLE0=melody
TTITLE1=hands of mercy
TTITLE2=lingering ache
TTITLE3=annalise
TTITLE4=regrets
TTITLE5=silver studded sky
TTITLE6=midnight
TTITLE7=rebekah
TTITLE8=april turned to may
EXTD=
EXTT0=
EXTT1=
EXTT2=
EXTT3=
EXTT4=
EXTT5=
EXTT6=
EXTT7=
EXTT8=
PLAYORDER=
